<svg width="74" height="104" viewBox="0 0 74 104" fill="none" xmlns="http://www.w3.org/2000/svg">
<path fill-rule="evenodd" clip-rule="evenodd" d="M17.6959 4.68559V9.371H22.3813H27.0669L27.0206 4.73172L26.9745 0.092439L22.3352 0.0463066L17.6959 0V4.68559ZM45.7917 4.68559V9.371H50.4771H55.1627L55.1164 4.73172L55.0703 0.092439L50.431 0.0463066L45.7917 0V4.68559ZM10.8743 18.3317C10.8107 18.3951 10.7587 30.57 10.7587 45.3869V72.3265H36.5999H62.4411V68.9445V65.5627H40.4154H18.3896V56.0239V46.4852H35.2124H52.0352V43.1033V39.7214H35.2124H18.3896V32.4373V25.1532H39.1146H59.8396V21.6846V18.216H35.4148C21.981 18.216 10.9378 18.268 10.8743 18.3317Z" fill="white"/>
<path d="M0 96.4747V93.4222V90.3696L0.70645 90.3725C1.7254 90.3766 3.42703 90.7696 4.51712 91.2523C6.01746 91.9168 7.3258 92.8957 9.52461 94.9986C12.0705 97.4335 12.6784 97.7629 14.6277 97.7629C16.577 97.7629 17.1849 97.4335 19.7307 94.9986C21.9295 92.8957 23.2379 91.9168 24.7382 91.2523C27.5733 89.9968 31.7103 90.0861 34.4339 91.4616C35.8978 92.2009 36.7169 92.8381 38.8654 94.9082C41.401 97.3512 42.1687 97.7676 44.1332 97.7644C46.0762 97.7614 46.8199 97.344 49.6159 94.6871C52.0474 92.3766 53.1837 91.6025 55.1703 90.9026C56.3145 90.4995 56.6588 90.4576 58.8431 90.4552C60.9221 90.4531 61.4133 90.5058 62.4169 90.8379C63.9972 91.361 65.6164 92.3457 66.9259 93.5799C67.526 94.1456 68.5522 95.1142 69.2063 95.7325C70.5193 96.9735 71.648 97.6068 72.8475 97.7761L73.637 97.8874V100.944V104L72.9306 103.997C71.6521 103.992 69.9211 103.521 68.3712 102.756C67.0461 102.102 66.5343 101.707 64.4806 99.7594C61.5767 97.005 60.8692 96.603 58.9262 96.603C56.8727 96.603 56.3554 96.8748 53.8019 99.2955C51.2116 101.751 49.8287 102.712 47.892 103.401C46.5489 103.878 46.3142 103.909 44.1323 103.904C42.058 103.899 41.6583 103.849 40.4537 103.449C38.5923 102.831 36.9994 101.738 34.5557 99.4007C31.9458 96.9047 31.3822 96.6025 29.3385 96.6045C27.3275 96.6067 26.6819 96.9586 24.059 99.4823C21.8321 101.625 20.9754 102.273 19.3886 103.016C16.5934 104.324 12.6619 104.324 9.8667 103.016C8.27993 102.273 7.42321 101.625 5.19631 99.4823C3.06184 97.4285 2.0266 96.7525 0.747007 96.5771L0 96.4747Z" fill="white"/>
</svg>
