<svg width="137" height="137" viewBox="0 0 137 137" fill="none" xmlns="http://www.w3.org/2000/svg">
<path fill-rule="evenodd" clip-rule="evenodd" d="M6.10378 64.4293C-3.82291 47.3753 -1.06799 26.2352 12.8528 12.255C21.5216 3.54988 33.2036 -0.750452 45.4518 0.379558C61.1913 1.83153 75.2956 15.3436 85.9077 26.0092C86.2015 26.3055 86.2006 26.7857 85.9046 27.0793C85.6087 27.3728 85.1277 27.3724 84.8339 27.0766C74.5345 16.7248 60.5948 3.29642 45.3127 1.88649C33.514 0.798023 22.2765 4.9368 13.9267 13.3218C0.489558 26.816 -2.16931 47.2067 7.4123 63.6682C7.62205 64.0285 7.4994 64.4929 7.13886 64.7026C6.77831 64.9122 6.31366 64.7896 6.10378 64.4293Z" fill="white"/>
<path fill-rule="evenodd" clip-rule="evenodd" d="M131.078 72.5704C141.005 89.6243 138.25 110.764 124.329 124.745C115.66 133.45 103.978 137.75 91.73 136.62C75.9905 135.168 61.8862 121.656 51.274 110.99C50.9803 110.694 50.9812 110.214 51.2771 109.92C51.5731 109.627 52.0541 109.627 52.3479 109.923C62.6473 120.275 76.587 133.703 91.869 135.113C103.668 136.202 114.905 132.063 123.255 123.678C136.692 110.184 139.351 89.7934 129.769 73.3315C129.56 72.9712 129.682 72.5067 130.043 72.2971C130.403 72.0875 130.868 72.21 131.078 72.5704Z" fill="white"/>
<path fill-rule="evenodd" clip-rule="evenodd" d="M74.0552 4.95072C91.5617 -4.17014 112.565 -0.44166 125.896 14.1017C134.196 23.1582 137.954 35.0192 136.258 47.1939C134.079 62.8393 119.919 76.2943 108.767 86.3944C108.458 86.674 107.978 86.6511 107.698 86.3422C107.418 86.0329 107.441 85.553 107.751 85.2735C118.574 75.4705 132.642 62.1761 134.758 46.9852C136.392 35.2571 132.775 23.8476 124.779 15.1244C111.912 1.08598 91.6538 -2.51174 74.7556 6.29214C74.386 6.48463 73.9272 6.34084 73.7345 5.97158C73.5413 5.60181 73.6854 5.14372 74.0552 4.95072Z" fill="white"/>
<path fill-rule="evenodd" clip-rule="evenodd" d="M62.6016 132.049C45.0957 141.17 24.0916 137.442 10.7615 122.898C2.46087 113.842 -1.29665 101.981 0.39889 89.8061C2.57815 74.1607 16.7376 60.7062 27.8898 50.6055C28.1988 50.326 28.6789 50.349 28.9592 50.6578C29.2389 50.9671 29.2159 51.447 28.9063 51.7265C18.0826 61.5295 4.01521 74.8239 1.89914 90.0148C0.264857 101.743 3.88207 113.152 11.8777 121.876C24.7445 135.914 45.0032 139.512 61.9014 130.708C62.271 130.515 62.7298 130.659 62.9225 131.028C63.1156 131.398 62.9716 131.856 62.6016 132.049Z" fill="white"/>
<path fill-rule="evenodd" clip-rule="evenodd" d="M40.1867 7.58069H40.139C31.5111 7.58069 23.4731 10.9678 17.2868 17.1812C5.86831 28.6478 3.91378 45.6954 11.8327 59.2995C14.0769 57.0924 16.3212 54.8862 18.5654 52.6804C13.9181 43.0144 15.3349 31.5759 23.0345 23.6368C33.4983 12.8507 48.4585 14.7897 59.5643 23.4628C64.9173 27.6444 69.8624 27.9344 74.9671 25.2109C66.4504 16.449 55.5558 8.86254 43.2161 7.72319C42.1999 7.62912 41.1894 7.58222 40.1867 7.58069Z" fill="white"/>
<path fill-rule="evenodd" clip-rule="evenodd" d="M118.372 84.5468C123.018 94.2142 121.601 105.653 113.901 113.591C103.437 124.376 88.4775 122.438 77.3727 113.765C72.0189 109.584 67.0746 109.293 61.9685 112.016C70.4856 120.779 81.3793 128.365 93.7187 129.505C103.5 130.408 112.732 126.993 119.648 120.048C131.068 108.582 133.023 91.5327 125.104 77.9286C122.86 80.1348 120.615 82.3415 118.372 84.5468Z" fill="white"/>
<path fill-rule="evenodd" clip-rule="evenodd" d="M118.372 84.5468C123.018 94.2142 121.601 105.653 113.901 113.591C103.437 124.376 88.4775 122.438 77.3727 113.765C72.0189 109.584 67.0746 109.293 61.9685 112.016C70.4856 120.779 81.3793 128.365 93.7187 129.505C103.5 130.408 112.732 126.993 119.648 120.048C131.068 108.582 133.023 91.5327 125.104 77.9286C122.86 80.1348 120.615 82.3415 118.372 84.5468Z" fill="white"/>
<path fill-rule="evenodd" clip-rule="evenodd" d="M78.1589 11.9855C80.3671 14.2292 82.5749 16.4715 84.7834 18.7144C94.4548 14.0701 105.901 15.4859 113.845 23.181C124.638 33.6369 122.698 48.5884 114.019 59.6864C109.835 65.036 109.545 69.9778 112.27 75.0798C121.038 66.5681 128.629 55.6806 129.769 43.3494C130.672 33.5733 127.255 24.3483 120.305 17.4359C113.472 10.64 104.656 7.19914 95.7692 7.19824C89.7326 7.19786 83.6653 8.78455 78.1589 11.9855Z" fill="white"/>
<path fill-rule="evenodd" clip-rule="evenodd" d="M7.16738 93.8777C6.26365 103.652 9.67955 112.877 16.6294 119.79C28.1024 131.202 45.1626 133.156 58.7769 125.242C56.5688 122.999 54.3611 120.756 52.1533 118.513C42.4807 123.158 31.0356 121.743 23.0915 114.048C12.2984 103.592 14.2376 88.6404 22.9167 77.542C27.1007 72.192 27.3913 67.251 24.667 62.1481C15.8988 70.6594 8.30746 81.5455 7.16738 93.8777Z" fill="white"/>
<path fill-rule="evenodd" clip-rule="evenodd" d="M7.16738 93.8777C6.26365 103.652 9.67955 112.877 16.6294 119.79C28.1024 131.202 45.1626 133.156 58.7769 125.242C56.5688 122.999 54.3611 120.756 52.1533 118.513C42.4807 123.158 31.0356 121.743 23.0915 114.048C12.2984 103.592 14.2376 88.6404 22.9167 77.542C27.1007 72.192 27.3913 67.251 24.667 62.1481C15.8988 70.6594 8.30746 81.5455 7.16738 93.8777Z" fill="white"/>
<path fill-rule="evenodd" clip-rule="evenodd" d="M37.0511 33.4258L53.3645 49.4671L50.7101 52.1634L34.3962 36.1227L37.0511 33.4258Z" fill="white"/>
<path fill-rule="evenodd" clip-rule="evenodd" d="M104.736 35.4521L89.502 50.4324L87.9089 48.8146L103.143 33.8342L104.736 35.4521Z" fill="white"/>
<path fill-rule="evenodd" clip-rule="evenodd" d="M102.46 103.616L86.1462 87.5752L88.8006 84.8788L105.114 100.92L102.46 103.616Z" fill="white"/>
<path fill-rule="evenodd" clip-rule="evenodd" d="M33.2715 103.386L48.5052 88.4054L50.0983 90.0231L34.8642 105.004L33.2715 103.386Z" fill="white"/>
<path fill-rule="evenodd" clip-rule="evenodd" d="M54.8176 68.6124C54.8176 60.7558 61.5178 54.2687 69.4828 54.4099C77.3896 54.5501 83.7167 61.076 83.6175 69.1422C83.5723 72.8012 81.7901 76.8169 79.2169 79.1901C69.6511 88.0128 54.8176 81.4585 54.8176 68.6124ZM62.6061 60.8586C62.5322 60.9529 61.3482 62.1276 61.2792 62.1743C60.9182 62.0874 59.69 61.5057 59.5213 61.5278C59.3246 61.5941 58.1844 63.7318 58.068 63.9311L59.5019 65.1864C59.4739 65.4493 59.1283 66.2569 59.0196 67.0487L57.1331 67.317L57.1363 70.2031C57.4729 70.2536 57.8605 70.333 58.1582 70.384L58.8879 70.5337C59.0801 70.6099 59.0819 71.0968 59.1974 71.5333C59.2795 71.8426 59.3643 72.1325 59.4585 72.3968C59.1531 72.7188 58.216 73.3012 58.0152 73.589L59.3959 76.0356C59.8521 76.0076 60.6118 75.5652 61.1537 75.4507L61.3568 75.6442C61.632 75.9566 62.2456 76.6091 62.5556 76.7967L61.8959 78.5434C62.1152 78.7361 64.1073 79.8957 64.355 79.966L65.5668 78.6264C65.8133 78.662 66.1946 78.8149 66.4634 78.8852C66.8041 78.9737 67.0802 79.0277 67.4403 79.1067L67.7416 80.8643C67.984 81.0063 69.961 80.8634 70.5868 80.9464C70.6239 80.5545 70.7448 79.2316 71.0643 79.1048L71.4184 79.0224C72.0316 78.8911 72.3118 78.7612 72.8248 78.6264C73.2178 79.0895 73.6071 79.586 73.9654 80.0477L76.4033 78.6693C76.4127 78.1485 75.8581 77.3319 75.8578 76.8508C76.3947 76.4337 76.706 75.9851 77.2276 75.4999L78.9124 76.1401C79.1199 75.9715 79.4552 75.2691 79.6388 74.9498C79.8368 74.6062 80.1807 74.103 80.3462 73.7143C80.2375 73.5497 79.1885 72.6371 78.9557 72.5424C78.9873 72.3981 79.4646 70.6671 79.4782 70.6423C79.7327 70.4854 80.8804 70.3794 81.301 70.3289L81.2978 67.4631C81.052 67.4021 79.5464 67.1767 79.5169 67.0915L78.9656 65.2482C79.4489 64.8343 79.9894 64.5061 80.409 64.0564C80.2705 63.7057 79.3036 62.1492 79.0103 61.5873L77.2181 62.2177C76.7412 61.8136 76.3704 61.3186 75.8578 60.9205C75.9805 60.3716 76.4822 59.5552 76.5287 59.0393C76.2458 58.9833 74.5863 57.8922 74.0805 57.6799L72.8451 59.1656C72.4373 59.1254 72.3213 59.0122 71.9743 58.8868C71.6928 58.7846 71.3827 58.7407 71.025 58.707L70.7678 57.0859C70.738 56.8569 70.7764 56.7184 70.5666 56.7184H67.9934C67.7561 56.7184 67.794 56.9344 67.757 57.172L67.4723 58.7696C67.026 58.5677 66.1052 59.0654 65.6716 59.1656C65.4856 58.89 65.2975 58.6551 65.0845 58.3711C64.9307 58.1658 64.6613 57.7496 64.4794 57.6501C64.2972 57.7132 64.0048 57.9039 63.8252 58.0099L62.5768 58.7061C62.3137 58.8354 62.1852 58.9125 61.9808 59.055L62.6061 60.8586Z" fill="white"/>
<path fill-rule="evenodd" clip-rule="evenodd" d="M92.1956 100.942C92.1956 106.483 96.7811 110.975 102.438 110.975C108.095 110.975 112.68 106.483 112.68 100.942C112.68 95.4008 108.095 90.9084 102.438 90.9084C96.7811 90.9084 92.1956 95.4008 92.1956 100.942Z" fill="white"/>
<path fill-rule="evenodd" clip-rule="evenodd" d="M96.9094 35.4391C96.9094 38.9417 99.6943 41.781 103.13 41.781C106.565 41.781 109.35 38.9417 109.35 35.4391C109.35 31.9364 106.565 29.0975 103.13 29.0975C99.6943 29.0975 96.9094 31.9364 96.9094 35.4391Z" fill="white"/>
<path fill-rule="evenodd" clip-rule="evenodd" d="M28.6572 103.399C28.6572 106.902 31.4421 109.74 34.8774 109.74C38.3129 109.74 41.0976 106.902 41.0976 103.399C41.0976 99.8963 38.3129 97.0565 34.8774 97.0565C31.4421 97.0565 28.6572 99.8963 28.6572 103.399Z" fill="white"/>
<path fill-rule="evenodd" clip-rule="evenodd" d="M25.7329 36.3254C25.7329 42.059 30.2922 46.7074 35.9159 46.7074C41.5401 46.7074 46.099 42.059 46.099 36.3254C46.099 30.5912 41.5401 25.9429 35.9159 25.9429C30.2922 25.9429 25.7329 30.5912 25.7329 36.3254Z" fill="white"/>
<path fill-rule="evenodd" clip-rule="evenodd" d="M52.4094 68.5544C52.4094 59.3826 60.2313 51.8097 69.5291 51.9743C78.7597 52.138 86.1462 59.7564 86.0298 69.173C85.9769 73.444 83.8966 78.1325 80.8929 80.9029C69.7258 91.2023 52.4094 83.5514 52.4094 68.5544ZM56.1795 53.093C56.0333 53.2797 53.698 55.5959 53.5617 55.6888C52.8507 55.5165 50.4273 54.3695 50.0948 54.4136C49.7076 54.5435 47.4575 58.7609 47.2287 59.154L50.0559 61.6294C50.0014 62.148 49.3201 63.7405 49.1052 65.3029L45.3838 65.8309L45.3915 71.5244C46.0547 71.6241 46.8191 71.7806 47.4065 71.8812L48.8459 72.1765C49.2248 72.3266 49.228 73.2866 49.4563 74.1478C49.6178 74.7579 49.7853 75.3301 49.9707 75.8505C49.3683 76.4862 47.5202 77.6342 47.1241 78.2019L49.847 83.0279C50.7477 82.9733 52.246 82.1 53.3145 81.8745L53.7156 82.256C54.258 82.8729 55.468 84.1588 56.0799 84.529L54.7787 87.9738C55.2108 88.3545 59.1399 90.6414 59.6286 90.7799L62.0185 88.1376C62.5045 88.2087 63.2566 88.51 63.7872 88.6479C64.4595 88.8229 65.0045 88.9294 65.7147 89.0849L66.3085 92.5519C66.7868 92.8319 70.6856 92.5505 71.9204 92.7142C71.9931 91.9409 72.2317 89.3316 72.8616 89.0817L73.5601 88.9185C74.7698 88.6602 75.3229 88.4044 76.3341 88.1376C77.1091 89.0519 77.8776 90.0314 78.5837 90.9413L83.3925 88.2228C83.4114 87.1952 82.3174 85.5846 82.3169 84.6358C83.3754 83.8129 83.9899 82.9283 85.0182 81.971L88.3413 83.2348C88.7514 82.9012 89.4124 81.5161 89.7748 80.887C90.165 80.2089 90.8427 79.2165 91.1699 78.4494C90.9555 78.1248 88.8853 76.3248 88.4266 76.1382C88.4889 75.8531 89.431 72.4398 89.4571 72.3906C89.9588 72.0818 92.2229 71.8717 93.0527 71.772L93.0464 66.119C92.5609 65.9996 89.592 65.555 89.5333 65.3868L88.4468 61.7516C89.3994 60.9355 90.4659 60.2876 91.2934 59.4016C91.0205 58.709 89.1124 55.6392 88.5348 54.5313L84.9997 55.7741C84.0594 54.9764 83.3281 54.001 82.3169 53.2152C82.5587 52.133 83.5482 50.5228 83.6399 49.5043C83.0817 49.3947 79.8092 47.243 78.8111 46.8236L76.3742 49.7536C75.5701 49.6751 75.3409 49.452 74.6575 49.2039C74.1015 49.0025 73.4907 48.9154 72.784 48.85L72.2774 45.6522C72.2187 45.2004 72.2949 44.9281 71.8799 44.9281H66.8053C66.3369 44.9281 66.4118 45.3532 66.3391 45.8222L65.7774 48.9736C64.8972 48.5745 63.0807 49.5561 62.226 49.7536C61.8588 49.2103 61.4874 48.7472 61.0674 48.1867C60.7647 47.7822 60.2336 46.9611 59.8744 46.7651C59.5152 46.8894 58.9387 47.2646 58.584 47.4743L56.121 48.8473C55.603 49.1034 55.349 49.2554 54.9465 49.5358L56.1795 53.093Z" fill="white"/>
</svg>
