<svg width="176" height="119" viewBox="0 0 176 119" fill="none" xmlns="http://www.w3.org/2000/svg">
<path d="M0.505371 5.50772C0.505371 2.88563 2.63099 0.76001 5.25308 0.76001H15.2842C17.9063 0.76001 20.032 2.88563 20.032 5.50771V15.5389C20.032 18.161 17.9063 20.2866 15.2843 20.2866H5.25308C2.63099 20.2866 0.505371 18.161 0.505371 15.5389V5.50772Z" fill="white"/>
<path d="M70.6537 20.32H69.3797V20.2295H41.9091C39.3802 20.2295 37.2823 22.1131 36.9537 24.5444L36.9394 24.6492V24.7158C36.9227 24.9135 36.9132 25.0802 36.9132 25.2254V25.3564C36.456 31.8121 31.6172 36.6556 25.1901 37.0581L24.4662 37.1414C21.9635 37.4296 20.0322 39.5394 20.0322 42.1088V113.952C20.0322 116.719 22.2754 118.963 25.0424 118.963H29.3407C32.103 118.963 34.3366 116.724 34.3366 113.952V75.0516H69.5893L70.6061 74.9778C83.0626 74.0681 92.8878 63.7119 92.8878 51.0386V44.2543C92.8878 31.5954 83.0864 21.2368 70.6537 20.32ZM78.5572 51.0386C78.5572 56.2037 74.5423 60.4281 69.463 60.7567H69.4202L34.3104 60.7591V45.9236H34.3962C34.9748 39.6156 39.7636 34.9006 46.1312 34.522H46.1693L69.4226 34.5196H69.4678C74.5423 34.8649 78.5572 39.0893 78.5572 44.2543V51.0386Z" fill="white"/>
<path d="M153.598 20.1803H152.324V20.0898H124.854C122.325 20.0898 120.227 21.9734 119.898 24.4047L119.884 24.5095V24.5762C119.867 24.7738 119.858 24.9405 119.858 25.0858V25.2168C119.401 31.6724 114.562 36.516 108.135 36.9184L107.411 37.0018C104.908 37.2899 102.977 39.3997 102.977 41.9691V113.813C102.977 116.58 105.22 118.823 107.987 118.823H112.285C115.048 118.823 117.281 116.585 117.281 113.813V74.9119H152.534L153.551 74.8381C166.007 73.9284 175.832 63.5722 175.832 50.899V44.1147C175.832 31.4557 166.031 21.0971 153.598 20.1803ZM161.502 50.899C161.502 56.064 157.487 60.2884 152.408 60.617H152.365L117.255 60.6194V45.784H117.341C117.919 39.4759 122.708 34.761 129.076 34.3824H129.114L152.367 34.38H152.412C157.487 34.7253 161.502 38.9497 161.502 44.1147V50.899Z" fill="white"/>
</svg>
