<svg width="1899" height="68" viewBox="0 0 1899 68" fill="none" xmlns="http://www.w3.org/2000/svg">
<path d="M11.3036 0.565179H1887.7C1893.63 0.565179 1898.43 5.37293 1898.43 11.3036V67.2563H0.565179V11.3036C0.565179 5.37292 5.37292 0.565179 11.3036 0.565179Z" fill="white"/>
<path d="M11.3036 0.565179H1887.7C1893.63 0.565179 1898.43 5.37293 1898.43 11.3036V67.2563H0.565179V11.3036C0.565179 5.37292 5.37292 0.565179 11.3036 0.565179Z" stroke="#C0C0C0" stroke-width="1.13036"/>
<rect x="27.467" y="31.5481" width="15.1468" height="15.1468" rx="7.57339" fill="#EE6A5F" stroke="#C7493E" stroke-width="0.678214"/>
<rect x="54.5959" y="31.5481" width="15.1468" height="15.1468" rx="7.57339" fill="#F4BE50" stroke="#CD9B35" stroke-width="0.678214"/>
<rect x="81.7239" y="31.5481" width="15.1468" height="15.1468" rx="7.57339" fill="#5FC454" stroke="#39A430" stroke-width="0.678214"/>
<rect x="148.488" y="30.0791" width="24.8679" height="18.0857" rx="2.26071" fill="white" stroke="#737373" stroke-width="1.5825"/>
<path d="M156.4 47.034L156.4 31.209" stroke="#737373" stroke-width="1.5825" stroke-linecap="square"/>
<path d="M151.314 34.1484L153.575 34.1484" stroke="#737373" stroke-width="1.13036" stroke-linecap="round"/>
<path d="M151.314 36.8613L153.575 36.8613" stroke="#737373" stroke-width="1.13036" stroke-linecap="round"/>
<path d="M151.314 39.5742L153.575 39.5742" stroke="#737373" stroke-width="1.13036" stroke-linecap="round"/>
<path d="M219.136 30.0791L210.658 38.5568L219.136 47.0345" stroke="#737373" stroke-width="1.69554" stroke-linecap="round" stroke-linejoin="round"/>
<path d="M256.437 30.0791L264.915 38.5568L256.437 47.0345" stroke="#737373" stroke-opacity="0.5" stroke-width="1.69554" stroke-linecap="round" stroke-linejoin="round"/>
<rect x="590.252" y="15.8262" width="767.513" height="46.5919" rx="8.54635" fill="#F2F2F2"/>
<rect x="607.345" y="31.21" width="15.825" height="15.825" rx="7.9125" fill="#F2F2F2" stroke="#737373" stroke-width="1.13036"/>
<path d="M611.51 39.0244L619.006 39.0244" stroke="#737373" stroke-width="1.13036" stroke-linecap="round"/>
<path d="M615.259 35.375L615.259 42.8711" stroke="#737373" stroke-width="1.13036" stroke-linecap="round"/>
<rect x="890.754" y="37.8662" width="9.04286" height="8.0381" rx="1.13036" fill="#9E9E9E"/>
<rect x="892.324" y="32.906" width="5.90298" height="9.92202" rx="2.95149" stroke="#9E9E9E" stroke-width="1.13036"/>
<path d="M914.642 45.956C913.895 45.956 913.229 45.7654 912.643 45.384C912.061 44.9987 911.603 44.4508 911.27 43.7403C910.941 43.0258 910.777 42.1688 910.777 41.1693C910.777 40.1698 910.943 39.3148 911.276 38.6043C911.613 37.8938 912.075 37.3499 912.661 36.9726C913.247 36.5953 913.912 36.4066 914.654 36.4066C915.228 36.4066 915.69 36.5029 916.039 36.6956C916.392 36.8843 916.665 37.105 916.858 37.3579C917.055 37.6108 917.207 37.8336 917.315 38.0263H917.424V33.4442H919.224V45.7754H917.466V44.3364H917.315C917.207 44.533 917.051 44.7578 916.846 45.0107C916.645 45.2636 916.368 45.4844 916.015 45.673C915.662 45.8617 915.204 45.956 914.642 45.956ZM915.039 44.4206C915.557 44.4206 915.995 44.2842 916.352 44.0112C916.713 43.7342 916.986 43.3509 917.171 42.8612C917.36 42.3715 917.454 41.8015 917.454 41.1512C917.454 40.509 917.362 39.947 917.177 39.4653C916.992 38.9836 916.721 38.6083 916.364 38.3394C916.007 38.0704 915.565 37.9359 915.039 37.9359C914.498 37.9359 914.046 38.0764 913.685 38.3574C913.323 38.6384 913.051 39.0217 912.866 39.5074C912.685 39.9931 912.595 40.5411 912.595 41.1512C912.595 41.7694 912.687 42.3253 912.872 42.819C913.057 43.3128 913.329 43.7041 913.691 43.9932C914.056 44.2781 914.506 44.4206 915.039 44.4206ZM921.624 45.7754V36.527H923.352V38.0323H923.467C923.659 37.5225 923.974 37.1251 924.412 36.8401C924.849 36.5511 925.373 36.4066 925.983 36.4066C926.601 36.4066 927.119 36.5511 927.537 36.8401C927.958 37.1291 928.269 37.5265 928.47 38.0323H928.566C928.787 37.5386 929.138 37.1452 929.62 36.8522C930.102 36.5551 930.676 36.4066 931.342 36.4066C932.181 36.4066 932.865 36.6695 933.395 37.1954C933.929 37.7212 934.196 38.514 934.196 39.5737V45.7754H932.396V39.7423C932.396 39.1161 932.225 38.6625 931.884 38.3815C931.543 38.1005 931.135 37.96 930.662 37.96C930.076 37.96 929.62 38.1407 929.295 38.5019C928.97 38.8592 928.807 39.3188 928.807 39.8808V45.7754H927.013V39.6279C927.013 39.1261 926.856 38.7227 926.543 38.4176C926.23 38.1126 925.823 37.96 925.321 37.96C924.98 37.96 924.665 38.0503 924.376 38.231C924.091 38.4076 923.86 38.6545 923.683 38.9716C923.511 39.2887 923.424 39.656 923.424 40.0734V45.7754H921.624ZM936.439 45.7754V36.527H938.24V45.7754H936.439ZM937.349 35.1C937.036 35.1 936.767 34.9957 936.542 34.7869C936.321 34.5742 936.211 34.3213 936.211 34.0283C936.211 33.7312 936.321 33.4783 936.542 33.2696C936.767 33.0569 937.036 32.9505 937.349 32.9505C937.662 32.9505 937.929 33.0569 938.149 33.2696C938.374 33.4783 938.487 33.7312 938.487 34.0283C938.487 34.3213 938.374 34.5742 938.149 34.7869C937.929 34.9957 937.662 35.1 937.349 35.1ZM944.809 36.527V37.9721H939.758V36.527H944.809ZM941.112 34.3113H942.913V43.0599C942.913 43.4091 942.965 43.672 943.069 43.8486C943.174 44.0212 943.308 44.1397 943.473 44.2039C943.641 44.2641 943.824 44.2942 944.021 44.2942C944.165 44.2942 944.292 44.2842 944.4 44.2641C944.508 44.244 944.593 44.228 944.653 44.2159L944.978 45.7031C944.874 45.7433 944.725 45.7834 944.532 45.8236C944.34 45.8677 944.099 45.8918 943.81 45.8958C943.336 45.9038 942.895 45.8195 942.485 45.6429C942.076 45.4663 941.745 45.1934 941.492 44.8241C941.239 44.4548 941.112 43.9911 941.112 43.4332V34.3113ZM946.631 45.7754V36.527H948.371V37.9962H948.468C948.636 37.4984 948.933 37.107 949.359 36.822C949.788 36.533 950.274 36.3885 950.816 36.3885C950.928 36.3885 951.061 36.3925 951.213 36.4006C951.37 36.4086 951.492 36.4186 951.581 36.4307V38.1527C951.508 38.1326 951.38 38.1106 951.195 38.0865C951.011 38.0584 950.826 38.0443 950.641 38.0443C950.216 38.0443 949.836 38.1346 949.503 38.3153C949.174 38.4919 948.913 38.7388 948.721 39.0559C948.528 39.369 948.432 39.7262 948.432 40.1276V45.7754H946.631ZM954.388 49.2435C954.119 49.2435 953.875 49.2215 953.654 49.1773C953.433 49.1372 953.269 49.093 953.16 49.0448L953.594 47.5697C953.923 47.658 954.216 47.6961 954.473 47.6841C954.73 47.672 954.956 47.5757 955.153 47.3951C955.354 47.2144 955.53 46.9194 955.683 46.51L955.906 45.8958L952.522 36.527H954.449L956.791 43.7041H956.887L959.229 36.527H961.162L957.351 47.0097C957.174 47.4914 956.949 47.8988 956.676 48.232C956.403 48.5692 956.078 48.8221 955.701 48.9906C955.324 49.1592 954.886 49.2435 954.388 49.2435ZM963.291 45.8898C962.962 45.8898 962.679 45.7734 962.442 45.5406C962.205 45.3037 962.087 45.0187 962.087 44.6856C962.087 44.3564 962.205 44.0754 962.442 43.8426C962.679 43.6058 962.962 43.4874 963.291 43.4874C963.62 43.4874 963.903 43.6058 964.14 43.8426C964.377 44.0754 964.495 44.3564 964.495 44.6856C964.495 44.9063 964.439 45.1091 964.327 45.2937C964.218 45.4743 964.074 45.6188 963.893 45.7272C963.713 45.8356 963.512 45.8898 963.291 45.8898ZM971.139 36.527V37.9721H965.912V36.527H971.139ZM967.345 45.7754V35.4553C967.345 34.8772 967.472 34.3976 967.725 34.0162C967.978 33.6309 968.313 33.3439 968.73 33.1552C969.148 32.9625 969.601 32.8662 970.091 32.8662C970.452 32.8662 970.761 32.8963 971.018 32.9565C971.275 33.0127 971.466 33.0649 971.59 33.1131L971.169 34.5702C971.084 34.5461 970.976 34.518 970.844 34.4859C970.711 34.4497 970.551 34.4317 970.362 34.4317C969.924 34.4317 969.611 34.5401 969.423 34.7568C969.238 34.9736 969.146 35.2867 969.146 35.6961V45.7754H967.345ZM976.448 45.962C975.537 45.962 974.752 45.7674 974.094 45.378C973.44 44.9846 972.934 44.4327 972.577 43.7222C972.223 43.0077 972.047 42.1708 972.047 41.2114C972.047 40.2641 972.223 39.4292 972.577 38.7066C972.934 37.9841 973.432 37.4201 974.07 37.0147C974.712 36.6093 975.463 36.4066 976.322 36.4066C976.844 36.4066 977.349 36.4929 977.839 36.6655C978.329 36.8381 978.768 37.1091 979.158 37.4783C979.547 37.8476 979.854 38.3273 980.079 38.9174C980.304 39.5034 980.416 40.2159 980.416 41.0549V41.6931H973.064V40.3444H978.652C978.652 39.8707 978.556 39.4513 978.363 39.086C978.17 38.7167 977.899 38.4257 977.55 38.2129C977.205 38.0002 976.8 37.8938 976.334 37.8938C975.828 37.8938 975.387 38.0182 975.009 38.2671C974.636 38.512 974.347 38.8331 974.142 39.2305C973.942 39.6239 973.841 40.0514 973.841 40.513V41.5667C973.841 42.1848 973.95 42.7107 974.166 43.1442C974.387 43.5777 974.694 43.9089 975.088 44.1377C975.481 44.3624 975.941 44.4748 976.466 44.4748C976.808 44.4748 977.119 44.4267 977.4 44.3303C977.681 44.23 977.923 44.0815 978.128 43.8848C978.333 43.6881 978.489 43.4452 978.598 43.1562L980.302 43.4633C980.165 43.9651 979.92 44.4046 979.567 44.7819C979.218 45.1552 978.778 45.4462 978.249 45.655C977.723 45.8597 977.123 45.962 976.448 45.962ZM985.706 45.956C984.96 45.956 984.293 45.7654 983.707 45.384C983.125 44.9987 982.668 44.4508 982.334 43.7403C982.005 43.0258 981.841 42.1688 981.841 41.1693C981.841 40.1698 982.007 39.3148 982.34 38.6043C982.678 37.8938 983.139 37.3499 983.725 36.9726C984.311 36.5953 984.976 36.4066 985.718 36.4066C986.292 36.4066 986.754 36.5029 987.103 36.6956C987.456 36.8843 987.729 37.105 987.922 37.3579C988.119 37.6108 988.271 37.8336 988.38 38.0263H988.488V33.4442H990.288V45.7754H988.53V44.3364H988.38C988.271 44.533 988.115 44.7578 987.91 45.0107C987.709 45.2636 987.432 45.4844 987.079 45.673C986.726 45.8617 986.268 45.956 985.706 45.956ZM986.104 44.4206C986.621 44.4206 987.059 44.2842 987.416 44.0112C987.777 43.7342 988.05 43.3509 988.235 42.8612C988.424 42.3715 988.518 41.8015 988.518 41.1512C988.518 40.509 988.426 39.947 988.241 39.4653C988.056 38.9836 987.786 38.6083 987.428 38.3394C987.071 38.0704 986.629 37.9359 986.104 37.9359C985.562 37.9359 985.11 38.0764 984.749 38.3574C984.388 38.6384 984.115 39.0217 983.93 39.5074C983.749 39.9931 983.659 40.5411 983.659 41.1512C983.659 41.7694 983.751 42.3253 983.936 42.819C984.121 43.3128 984.394 43.7041 984.755 43.9932C985.12 44.2781 985.57 44.4206 986.104 44.4206ZM996.584 45.962C995.717 45.962 994.96 45.7633 994.314 45.366C993.668 44.9686 993.166 44.4126 992.809 43.6981C992.451 42.9836 992.273 42.1487 992.273 41.1933C992.273 40.234 992.451 39.3951 992.809 38.6765C993.166 37.958 993.668 37.4001 994.314 37.0027C994.96 36.6053 995.717 36.4066 996.584 36.4066C997.451 36.4066 998.208 36.6053 998.854 37.0027C999.5 37.4001 1000 37.958 1000.36 38.6765C1000.72 39.3951 1000.89 40.234 1000.89 41.1933C1000.89 42.1487 1000.72 42.9836 1000.36 43.6981C1000 44.4126 999.5 44.9686 998.854 45.366C998.208 45.7633 997.451 45.962 996.584 45.962ZM996.59 44.4508C997.152 44.4508 997.617 44.3022 997.987 44.0052C998.356 43.7082 998.629 43.3128 998.806 42.819C998.986 42.3253 999.077 41.7814 999.077 41.1873C999.077 40.5973 998.986 40.0554 998.806 39.5616C998.629 39.0639 998.356 38.6645 997.987 38.3634C997.617 38.0624 997.152 37.9119 996.59 37.9119C996.024 37.9119 995.554 38.0624 995.181 38.3634C994.812 38.6645 994.537 39.0639 994.356 39.5616C994.179 40.0554 994.091 40.5973 994.091 41.1873C994.091 41.7814 994.179 42.3253 994.356 42.819C994.537 43.3128 994.812 43.7082 995.181 44.0052C995.554 44.3022 996.024 44.4508 996.59 44.4508ZM1002.73 45.7754V36.527H1004.48V37.9962H1004.57C1004.74 37.4984 1005.04 37.107 1005.46 36.822C1005.89 36.533 1006.38 36.3885 1006.92 36.3885C1007.03 36.3885 1007.16 36.3925 1007.32 36.4006C1007.47 36.4086 1007.6 36.4186 1007.68 36.4307V38.1527C1007.61 38.1326 1007.48 38.1106 1007.3 38.0865C1007.11 38.0584 1006.93 38.0443 1006.74 38.0443C1006.32 38.0443 1005.94 38.1346 1005.61 38.3153C1005.28 38.4919 1005.02 38.7388 1004.82 39.0559C1004.63 39.369 1004.54 39.7262 1004.54 40.1276V45.7754H1002.73ZM1012.64 45.962C1011.77 45.962 1011.01 45.7633 1010.37 45.366C1009.72 44.9686 1009.22 44.4126 1008.86 43.6981C1008.5 42.9836 1008.33 42.1487 1008.33 41.1933C1008.33 40.234 1008.5 39.3951 1008.86 38.6765C1009.22 37.958 1009.72 37.4001 1010.37 37.0027C1011.01 36.6053 1011.77 36.4066 1012.64 36.4066C1013.5 36.4066 1014.26 36.6053 1014.91 37.0027C1015.55 37.4001 1016.06 37.958 1016.41 38.6765C1016.77 39.3951 1016.95 40.234 1016.95 41.1933C1016.95 42.1487 1016.77 42.9836 1016.41 43.6981C1016.06 44.4126 1015.55 44.9686 1014.91 45.366C1014.26 45.7633 1013.5 45.962 1012.64 45.962ZM1012.64 44.4508C1013.21 44.4508 1013.67 44.3022 1014.04 44.0052C1014.41 43.7082 1014.68 43.3128 1014.86 42.819C1015.04 42.3253 1015.13 41.7814 1015.13 41.1873C1015.13 40.5973 1015.04 40.0554 1014.86 39.5616C1014.68 39.0639 1014.41 38.6645 1014.04 38.3634C1013.67 38.0624 1013.21 37.9119 1012.64 37.9119C1012.08 37.9119 1011.61 38.0624 1011.23 38.3634C1010.86 38.6645 1010.59 39.0639 1010.41 39.5616C1010.23 40.0554 1010.14 40.5973 1010.14 41.1873C1010.14 41.7814 1010.23 42.3253 1010.41 42.819C1010.59 43.3128 1010.86 43.7082 1011.23 44.0052C1011.61 44.3022 1012.08 44.4508 1012.64 44.4508ZM1020.51 45.7754L1017.79 36.527H1019.65L1021.46 43.3188H1021.55L1023.37 36.527H1025.23L1027.04 43.2887H1027.13L1028.93 36.527H1030.79L1028.07 45.7754H1026.24L1024.36 39.098H1024.22L1022.34 45.7754H1020.51Z" fill="#4C4C4C"/>
<rect x="1683.1" y="28.3838" width="21.4768" height="21.4768" rx="10.7384" fill="white" stroke="#737373" stroke-width="1.61076"/>
<path d="M1694.61 33.3039C1694.61 32.9581 1694.31 32.6778 1693.94 32.6778C1693.57 32.6778 1693.27 32.9581 1693.27 33.3039L1694.61 33.3039ZM1693.46 44.2531C1693.73 44.4977 1694.15 44.4977 1694.41 44.2531L1698.67 40.268C1698.93 40.0235 1698.93 39.627 1698.67 39.3824C1698.41 39.1379 1697.99 39.1379 1697.72 39.3824L1693.94 42.9247L1690.15 39.3824C1689.89 39.1379 1689.46 39.1379 1689.2 39.3824C1688.94 39.627 1688.94 40.0235 1689.2 40.268L1693.46 44.2531ZM1693.27 33.3039L1693.27 43.8103L1694.61 43.8103L1694.61 33.3039L1693.27 33.3039Z" fill="#737373"/>
<rect x="1741.21" y="35.4482" width="16.9554" height="15.5424" rx="2.15795" fill="white" stroke="#737373" stroke-width="1.69554"/>
<path d="M1755.11 31.063L1751.09 27.2957V27.1208H1750.9L1750.63 26.8681C1750.05 26.3262 1749.13 26.3262 1748.55 26.8681L1748.28 27.1208H1748.09V27.2957L1744.07 31.063C1743.46 31.6331 1743.46 32.5808 1744.07 33.1509C1744.65 33.6928 1745.56 33.6928 1746.14 33.1509L1748.09 31.327V44.058C1748.09 44.908 1748.81 45.5084 1749.59 45.5084C1750.37 45.5084 1751.09 44.908 1751.09 44.058V31.327L1753.04 33.1509C1753.61 33.6928 1754.53 33.6928 1755.11 33.1509C1755.72 32.5808 1755.72 31.6331 1755.11 31.063Z" fill="#737373" stroke="white" stroke-width="1.5825"/>
<path d="M1794.8 38.8955L1811.76 38.8955" stroke="#737373" stroke-width="1.69554" stroke-linecap="round"/>
<path d="M1803.28 30.6445L1803.28 47.5999" stroke="#737373" stroke-width="1.69554" stroke-linecap="round"/>
<rect x="1848.4" y="27.8193" width="17.3901" height="17.3901" rx="2.26071" fill="white" stroke="#737373" stroke-width="1.69554"/>
<rect x="1854.48" y="33.0352" width="17.3901" height="17.3901" rx="2.26071" fill="white" stroke="#737373" stroke-width="1.69554"/>
</svg>
