<svg width="53" height="73" viewBox="0 0 53 73" fill="none" xmlns="http://www.w3.org/2000/svg">
<path d="M23.2155 9.49877C23.9367 7.14233 24.474 5.48815 24.8303 4.53769C25.1836 3.58868 25.753 2.6791 26.5385 1.81478C27.0173 1.2483 27.6378 0.803001 28.3985 0.481801C29.1421 0.164391 29.9421 0.000511519 30.7506 0C32.0427 0 33.18 0.4088 34.167 1.22348C35.2298 2.0367 35.7613 3.17258 35.7613 4.62821C35.7613 5.96265 35.332 7.12189 34.4706 8.11031C33.6092 9.12355 32.3639 10.1237 30.733 11.1092C29.1559 12.0619 27.5926 13.0373 26.0435 14.035C24.5514 14.9986 22.7921 16.3068 20.7671 17.9609L19.9334 17.2937C21.4007 14.4555 22.4957 11.8567 23.2155 9.49877Z" fill="white"/>
<path fill-rule="evenodd" clip-rule="evenodd" d="M18.5931 65.3088C18.4149 64.9438 18.1755 64.4255 18.1361 64.0138C17.9346 61.9157 18.0105 59.7447 18.0894 57.5664C18.1565 55.7195 18.2076 53.7762 19.4369 52.271C21.5685 49.6444 24.7338 48.0691 27.6699 46.5142C28.1283 46.2718 28.8101 46.0236 29.3825 45.6951V49.3583C29.3825 52.9265 29.5781 56.5327 27.975 59.8761C27.2582 61.3712 26.3865 62.4954 25.201 63.6575C24.582 64.2634 24.0797 64.7029 23.1862 65.2197C22.4489 65.646 21.808 65.9074 20.9787 66.0738C20.2706 66.2169 19.5596 66.3147 19.0296 65.8242C18.8909 65.6957 18.6748 65.4752 18.5931 65.3088ZM52.176 68.5777C51.5915 68.7675 50.9676 68.8021 50.3657 68.6782C49.7637 68.5543 49.2042 68.2762 48.7421 67.8711C47.5405 66.7907 47.6296 65.3701 47.6296 63.9043V37.1103C47.6296 34.2721 46.7302 32.5303 45.79 30.8849C44.657 28.9339 43.1204 27.2474 41.2829 25.9384C37.5745 23.2724 33.0792 22.2008 28.597 21.7438C24.0637 21.281 19.4369 21.2591 14.9708 22.2563C14.4318 22.3759 13.8962 22.5108 13.3648 22.6607C7.45032 24.3295 2.352 29.054 2.8995 35.6284C3.29078 40.3384 8.14528 43.3387 12.6173 42.9182C17.4192 42.4656 21.9423 38.1294 20.0399 33.1245C19.6472 32.0923 19.2822 31.2601 18.1361 30.1373C17.3973 29.4146 16.7505 28.9299 16.0439 28.3284C15.3431 27.7342 17.885 26.4757 18.4354 26.3107C23.4315 24.8156 29.3825 26.6041 29.3825 31.8412V37.9484C29.3825 39.2361 28.9503 40.28 28.0042 41.1954C25.1514 43.9606 20.9948 44.3826 17.3053 45.2221C11.1003 46.6354 4.21642 48.5918 1.257 54.7997C-0.747586 59.0045 -0.391346 64.3948 2.59144 68.0565C4.90992 70.9035 8.45334 72.2803 12.0318 72.6701C15.6322 73.0643 19.3961 72.8993 22.719 71.3488C24.2314 70.6412 25.6224 69.6991 26.8406 68.5573C28.1239 67.3513 29.0233 65.9483 29.9723 64.4868C29.965 64.4985 30.3607 65.1365 30.3913 65.2007C30.5914 65.6052 30.7739 66.014 31.0002 66.4052C32.7551 69.4464 35.8109 71.413 39.1528 72.3445C42.3385 73.2351 45.6352 73.2643 48.7786 72.1445C50.3656 71.5795 51.8607 70.3429 52.176 68.5777Z" fill="white"/>
</svg>
